<?xml version="1.0" encoding="UTF-8"?>
<!DOCTYPE svg PUBLIC "-//W3C//DTD SVG 1.1//EN" "http://www.w3.org/Graphics/SVG/1.1/DTD/svg11.dtd">
<svg xmlns="http://www.w3.org/2000/svg" version="1.1" width="204px" height="204px" style="shape-rendering:geometricPrecision; text-rendering:geometricPrecision; image-rendering:optimizeQuality; fill-rule:evenodd; clip-rule:evenodd" xmlns:xlink="http://www.w3.org/1999/xlink">
<g><path style="opacity:1" fill="#fefefe" d="M -0.5,-0.5 C 67.5,-0.5 135.5,-0.5 203.5,-0.5C 203.5,67.5 203.5,135.5 203.5,203.5C 135.5,203.5 67.5,203.5 -0.5,203.5C -0.5,135.5 -0.5,67.5 -0.5,-0.5 Z"/></g>
<g><path style="opacity:1" fill="#4b382b" d="M 70.5,46.5 C 70.7391,50.918 73.0724,53.7513 77.5,55C 79.8333,55.1667 82.1667,55.3333 84.5,55.5C 95.5055,54.2571 106.505,54.2571 117.5,55.5C 122.474,55.4861 126.974,54.1528 131,51.5C 131.333,49.8333 131.667,48.1667 132,46.5C 134.95,50.2253 135.284,54.2253 133,58.5C 130.984,60.684 128.817,62.684 126.5,64.5C 131.993,71.5715 131.66,78.4049 125.5,85C 117.738,89.1386 110.904,87.9719 105,81.5C 105.155,83.8107 105.155,86.144 105,88.5C 103.647,89.6853 102.48,91.0186 101.5,92.5C 100.52,91.0186 99.353,89.6853 98,88.5C 97.8446,86.144 97.8446,83.8107 98,81.5C 92.0957,87.9719 85.2623,89.1386 77.5,85C 71.3403,78.4049 71.007,71.5715 76.5,64.5C 69.0611,60.1842 67.0611,54.1842 70.5,46.5 Z"/></g>
<g><path style="opacity:1" fill="#e7e5e4" d="M 82.5,65.5 C 93.7468,65.2322 97.2468,70.2322 93,80.5C 90.0052,83.2648 86.5052,84.0981 82.5,83C 77.8451,80.1034 76.3451,75.9367 78,70.5C 79.025,68.313 80.525,66.6464 82.5,65.5 Z"/></g>
<g><path style="opacity:1" fill="#e9e8e6" d="M 112.5,65.5 C 122.659,64.1581 126.826,68.4914 125,78.5C 122.058,83.1532 117.891,84.6532 112.5,83C 105.875,77.0902 105.875,71.2569 112.5,65.5 Z"/></g>
<g><path style="opacity:1" fill="#473324" d="M 83.5,68.5 C 89.8607,67.6972 92.694,70.3639 92,76.5C 88.1178,73.4133 86.2845,74.4133 86.5,79.5C 84.0885,79.8633 82.5885,78.8633 82,76.5C 81.1093,73.5024 81.6093,70.8357 83.5,68.5 Z"/></g>
<g><path style="opacity:1" fill="#483526" d="M 113.5,68.5 C 120.503,67.6727 123.003,70.6727 121,77.5C 119.89,79.0368 118.39,79.7035 116.5,79.5C 116.716,74.4133 114.882,73.4133 111,76.5C 109.837,73.0289 110.67,70.3623 113.5,68.5 Z"/></g>
<g><path style="opacity:1" fill="#493628" d="M 74.5,132.5 C 75.412,128.869 75.5787,125.203 75,121.5C 74.4652,125.038 73.6319,128.372 72.5,131.5C 71.5987,130.71 70.9321,129.71 70.5,128.5C 70.7823,123.478 70.949,118.478 71,113.5C 69.7392,117.062 68.9059,120.729 68.5,124.5C 68.5654,124.938 68.3988,125.272 68,125.5C 67.4867,124.473 66.9867,123.473 66.5,122.5C 67.0021,117.162 67.1688,111.828 67,106.5C 66.3333,109.833 65.6667,113.167 65,116.5C 64.7216,115.584 64.2216,114.918 63.5,114.5C 61.8708,103.099 65.7041,94.0995 75,87.5C 82.5734,99.3543 85.5734,112.354 84,126.5C 83.2992,130.971 82.1325,135.304 80.5,139.5C 77.7341,137.741 75.7341,135.407 74.5,132.5 Z"/></g>
<g><path style="opacity:1" fill="#493628" d="M 139.5,114.5 C 138.778,114.918 138.278,115.584 138,116.5C 137.333,113.167 136.667,109.833 136,106.5C 135.831,111.828 135.998,117.162 136.5,122.5C 136.013,123.473 135.513,124.473 135,125.5C 134.601,125.272 134.435,124.938 134.5,124.5C 134.094,120.729 133.261,117.062 132,113.5C 132.051,118.478 132.218,123.478 132.5,128.5C 132.092,129.643 131.425,130.643 130.5,131.5C 129.35,128.253 128.517,124.92 128,121.5C 127.755,125.853 127.755,130.187 128,134.5C 126.316,136.351 124.483,138.018 122.5,139.5C 116.913,123.2 117.746,107.2 125,91.5C 126,90.1667 127,88.8333 128,87.5C 137.296,94.0995 141.129,103.099 139.5,114.5 Z"/></g>
<g><path style="opacity:1" fill="#c4bfbc" d="M 66.5,122.5 C 64.4851,120.293 63.4851,117.626 63.5,114.5C 64.2216,114.918 64.7216,115.584 65,116.5C 65.6667,113.167 66.3333,109.833 67,106.5C 67.1688,111.828 67.0021,117.162 66.5,122.5 Z"/></g>
<g><path style="opacity:1" fill="#c3bfbb" d="M 139.5,114.5 C 139.515,117.626 138.515,120.293 136.5,122.5C 135.998,117.162 135.831,111.828 136,106.5C 136.667,109.833 137.333,113.167 138,116.5C 138.278,115.584 138.778,114.918 139.5,114.5 Z"/></g>
<g><path style="opacity:1" fill="#9d9590" d="M 70.5,128.5 C 69.8333,127.167 69.1667,125.833 68.5,124.5C 68.9059,120.729 69.7392,117.062 71,113.5C 70.949,118.478 70.7823,123.478 70.5,128.5 Z"/></g>
<g><path style="opacity:1" fill="#9e9691" d="M 134.5,124.5 C 133.833,125.833 133.167,127.167 132.5,128.5C 132.218,123.478 132.051,118.478 132,113.5C 133.261,117.062 134.094,120.729 134.5,124.5 Z"/></g>
<g><path style="opacity:1" fill="#b3ada9" d="M 74.5,132.5 C 73.5084,132.672 72.8417,132.338 72.5,131.5C 73.6319,128.372 74.4652,125.038 75,121.5C 75.5787,125.203 75.412,128.869 74.5,132.5 Z"/></g>
<g><path style="opacity:1" fill="#4d3a2d" d="M 97.5,145.5 C 97.6713,148.797 97.0046,149.131 95.5,146.5C 94.8243,147.602 94.1577,148.602 93.5,149.5C 93.7373,148.209 93.404,147.209 92.5,146.5C 91.0413,146.433 89.7079,146.766 88.5,147.5C 87.6587,146.991 87.1587,147.657 87,149.5C 84.7566,142.735 87.2566,139.902 94.5,141C 96.1412,142.129 97.1412,143.629 97.5,145.5 Z"/></g>
<g><path style="opacity:1" fill="#4f3d30" d="M 113.5,149.5 C 113.5,148.5 113.5,147.5 113.5,146.5C 112.167,146.5 110.833,146.5 109.5,146.5C 109.404,150.311 108.738,150.311 107.5,146.5C 105.995,149.131 105.329,148.797 105.5,145.5C 106.843,140.922 109.843,139.422 114.5,141C 117.132,143.066 117.799,145.566 116.5,148.5C 115.808,147.975 115.308,147.308 115,146.5C 114.768,147.737 114.268,148.737 113.5,149.5 Z"/></g>
<g><path style="opacity:1" fill="#473023" d="M 98.5,145.5 C 100.5,144.167 102.5,144.167 104.5,145.5C 103.209,146.542 103.209,147.708 104.5,149C 102.421,149.808 100.421,149.641 98.5,148.5C 99.6527,147.313 99.6527,146.313 98.5,145.5 Z"/></g>
<g><path style="opacity:1" fill="#b5b0ac" d="M 92.5,146.5 C 92.5,147.833 92.5,149.167 92.5,150.5C 91.1667,150.5 89.8333,150.5 88.5,150.5C 88.5,149.5 88.5,148.5 88.5,147.5C 89.7079,146.766 91.0413,146.433 92.5,146.5 Z"/></g>
<g><path style="opacity:1" fill="#453122" d="M 82.5,147.5 C 84.6871,148.049 85.3538,149.215 84.5,151C 79.9856,152.175 75.6523,153.508 71.5,155C 74.8179,151.825 78.4846,149.325 82.5,147.5 Z"/></g>
<g><path style="opacity:1" fill="#d6d3d1" d="M 97.5,145.5 C 97.8333,145.5 98.1667,145.5 98.5,145.5C 99.6527,146.313 99.6527,147.313 98.5,148.5C 100.421,149.641 102.421,149.808 104.5,149C 103.209,147.708 103.209,146.542 104.5,145.5C 104.833,145.5 105.167,145.5 105.5,145.5C 105.329,148.797 105.995,149.131 107.5,146.5C 108.738,150.311 109.404,150.311 109.5,146.5C 110.833,146.5 112.167,146.5 113.5,146.5C 113.5,147.5 113.5,148.5 113.5,149.5C 106.579,150.667 99.9125,150.667 93.5,149.5C 94.1577,148.602 94.8243,147.602 95.5,146.5C 97.0046,149.131 97.6713,148.797 97.5,145.5 Z"/></g>
<g><path style="opacity:1" fill="#443022" d="M 118.5,147.5 C 123.432,148.966 127.765,151.466 131.5,155C 127.216,153.908 122.882,152.575 118.5,151C 117.829,150.014 117.829,148.847 118.5,147.5 Z"/></g>
</svg>
